solid OpenSCAD_Model
  facet normal 0.987684 0.156462 0
    outer loop
      vertex 29.25 -4 25
      vertex 28.993 -2.37766 18
      vertex 28.993 -2.37766 25
    endloop
  endfacet
  facet normal 0.987684 0.156462 0
    outer loop
      vertex 28.993 -2.37766 18
      vertex 29.25 -4 25
      vertex 29.25 -4 18
    endloop
  endfacet
  facet normal -0.987684 0.156462 0
    outer loop
      vertex 18.75 -4 18
      vertex 19.007 -2.37766 25
      vertex 19.007 -2.37766 18
    endloop
  endfacet
  facet normal -0.987684 0.156462 0
    outer loop
      vertex 19.007 -2.37766 25
      vertex 18.75 -4 18
      vertex 18.75 -4 25
    endloop
  endfacet
  facet normal 0 0 -1
    outer loop
      vertex 28.1 -4 18
      vertex 29.25 -4 18
      vertex 28.993 -5.62234 18
    endloop
  endfacet
  facet normal 0 0 -1
    outer loop
      vertex 27.8993 -5.26697 18
      vertex 28.993 -5.62234 18
      vertex 28.2473 -7.08587 18
    endloop
  endfacet
  facet normal 0 0 -1
    outer loop
      vertex 29.25 -4 18
      vertex 28.1 -4 18
      vertex 28.993 -2.37766 18
    endloop
  endfacet
  facet normal 0 0 -1
    outer loop
      vertex 27.8993 -2.73303 18
      vertex 28.993 -2.37766 18
      vertex 28.1 -4 18
    endloop
  endfacet
  facet normal 0 0 -1
    outer loop
      vertex 28.993 -5.62234 18
      vertex 27.8993 -5.26697 18
      vertex 28.1 -4 18
    endloop
  endfacet
  facet normal 0 0 -1
    outer loop
      vertex 28.2473 -7.08587 18
      vertex 27.317 -6.40992 18
      vertex 27.8993 -5.26697 18
    endloop
  endfacet
  facet normal 0 0 -1
    outer loop
      vertex 27 -6.72689 18
      vertex 28.2473 -7.08587 18
      vertex 27.0859 -8.24734 18
    endloop
  endfacet
  facet normal 0 0 -1
    outer loop
      vertex 27 -6.72689 18
      vertex 27.0859 -8.24734 18
      vertex 27 -8.29109 18
    endloop
  endfacet
  facet normal 0 0 -1
    outer loop
      vertex 28.2473 -7.08587 18
      vertex 27 -6.72689 18
      vertex 27.317 -6.40992 18
    endloop
  endfacet
  facet normal -0 0 -1
    outer loop
      vertex 28.993 -2.37766 18
      vertex 27.8993 -2.73303 18
      vertex 28.2473 -0.914128 18
    endloop
  endfacet
  facet normal 0 0 -1
    outer loop
      vertex 27.317 -1.59008 18
      vertex 28.2473 -0.914128 18
      vertex 27.8993 -2.73303 18
    endloop
  endfacet
  facet normal -0 0 -1
    outer loop
      vertex 28.2473 -0.914128 18
      vertex 27.317 -1.59008 18
      vertex 27.3332 0 18
    endloop
  endfacet
  facet normal 0 0 -1
    outer loop
      vertex 26.4099 -0.683031 18
      vertex 27.3332 0 18
      vertex 27.317 -1.59008 18
    endloop
  endfacet
  facet normal 0 0 -1
    outer loop
      vertex 25.267 -0.100669 18
      vertex 27.3332 0 18
      vertex 26.4099 -0.683031 18
    endloop
  endfacet
  facet normal -0 0 -1
    outer loop
      vertex 27.3332 0 18
      vertex 25.267 -0.100669 18
      vertex 24.6314 0 18
    endloop
  endfacet
  facet normal 0 0 -1
    outer loop
      vertex 20.9141 -8.24734 18
      vertex 22 -7.52583 18
      vertex 22 -8.80062 18
    endloop
  endfacet
  facet normal -0 0 -1
    outer loop
      vertex 22 -7.52583 18
      vertex 20.9141 -8.24734 18
      vertex 21.5901 -7.31697 18
    endloop
  endfacet
  facet normal 0 0 -1
    outer loop
      vertex 20.9141 -8.24734 18
      vertex 20.683 -6.40992 18
      vertex 21.5901 -7.31697 18
    endloop
  endfacet
  facet normal 0 0 -1
    outer loop
      vertex 19.7527 -7.08587 18
      vertex 20.683 -6.40992 18
      vertex 20.9141 -8.24734 18
    endloop
  endfacet
  facet normal 0 0 -1
    outer loop
      vertex 19.007 -5.62234 18
      vertex 20.1007 -5.26697 18
      vertex 19.7527 -7.08587 18
    endloop
  endfacet
  facet normal -0 0 -1
    outer loop
      vertex 20.683 -6.40992 18
      vertex 19.7527 -7.08587 18
      vertex 20.1007 -5.26697 18
    endloop
  endfacet
  facet normal 0 0 -1
    outer loop
      vertex 22.733 -0.100669 18
      vertex 20.6668 0 18
      vertex 23.3686 0 18
    endloop
  endfacet
  facet normal 0 0 -1
    outer loop
      vertex 21.5901 -0.683031 18
      vertex 20.6668 0 18
      vertex 22.733 -0.100669 18
    endloop
  endfacet
  facet normal 0 0 -1
    outer loop
      vertex 20.683 -1.59008 18
      vertex 20.6668 0 18
      vertex 21.5901 -0.683031 18
    endloop
  endfacet
  facet normal 0 0 -1
    outer loop
      vertex 19.7527 -0.914128 18
      vertex 20.683 -1.59008 18
      vertex 20.1007 -2.73303 18
    endloop
  endfacet
  facet normal 0 0 -1
    outer loop
      vertex 20.683 -1.59008 18
      vertex 19.7527 -0.914128 18
      vertex 20.6668 0 18
    endloop
  endfacet
  facet normal 0 0 -1
    outer loop
      vertex 19.007 -2.37766 18
      vertex 20.1007 -2.73303 18
      vertex 19.9 -4 18
    endloop
  endfacet
  facet normal -0 0 -1
    outer loop
      vertex 20.1007 -5.26697 18
      vertex 19.007 -5.62234 18
      vertex 19.9 -4 18
    endloop
  endfacet
  facet normal 0 0 -1
    outer loop
      vertex 18.75 -4 18
      vertex 19.9 -4 18
      vertex 19.007 -5.62234 18
    endloop
  endfacet
  facet normal 0 0 -1
    outer loop
      vertex 20.1007 -2.73303 18
      vertex 19.007 -2.37766 18
      vertex 19.7527 -0.914128 18
    endloop
  endfacet
  facet normal 0 0 -1
    outer loop
      vertex 19.9 -4 18
      vertex 18.75 -4 18
      vertex 19.007 -2.37766 18
    endloop
  endfacet
  facet normal 0.707118 0.707096 0
    outer loop
      vertex 28.2473 -0.914128 25
      vertex 27.3332 0 18
      vertex 27.3332 0 25
    endloop
  endfacet
  facet normal 0.707118 0.707096 0
    outer loop
      vertex 27.3332 0 18
      vertex 28.2473 -0.914128 25
      vertex 28.2473 -0.914128 18
    endloop
  endfacet
  facet normal 0.891008 0.453987 0
    outer loop
      vertex 28.993 -2.37766 25
      vertex 28.2473 -0.914128 18
      vertex 28.2473 -0.914128 25
    endloop
  endfacet
  facet normal 0.891008 0.453987 0
    outer loop
      vertex 28.2473 -0.914128 18
      vertex 28.993 -2.37766 25
      vertex 28.993 -2.37766 18
    endloop
  endfacet
  facet normal -0.707118 0.707096 0
    outer loop
      vertex 19.7527 -0.914128 18
      vertex 20.6668 0 25
      vertex 20.6668 0 18
    endloop
  endfacet
  facet normal -0.707118 0.707096 0
    outer loop
      vertex 20.6668 0 25
      vertex 19.7527 -0.914128 18
      vertex 19.7527 -0.914128 25
    endloop
  endfacet
  facet normal 0.891008 -0.453988 0
    outer loop
      vertex 28.2473 -7.08587 25
      vertex 28.993 -5.62234 18
      vertex 28.993 -5.62234 25
    endloop
  endfacet
  facet normal 0.891008 -0.453988 0
    outer loop
      vertex 28.993 -5.62234 18
      vertex 28.2473 -7.08587 25
      vertex 28.2473 -7.08587 18
    endloop
  endfacet
  facet normal -0.707128 -0.707085 0
    outer loop
      vertex 20.9141 -8.24734 18
      vertex 19.7527 -7.08587 25
      vertex 19.7527 -7.08587 18
    endloop
  endfacet
  facet normal -0.707128 -0.707085 0
    outer loop
      vertex 19.7527 -7.08587 25
      vertex 20.9141 -8.24734 18
      vertex 20.9141 -8.24734 25
    endloop
  endfacet
  facet normal -0.987684 -0.156462 0
    outer loop
      vertex 19.007 -5.62234 18
      vertex 18.75 -4 25
      vertex 18.75 -4 18
    endloop
  endfacet
  facet normal -0.987684 -0.156462 0
    outer loop
      vertex 18.75 -4 25
      vertex 19.007 -5.62234 18
      vertex 19.007 -5.62234 25
    endloop
  endfacet
  facet normal -0.891008 0.453987 0
    outer loop
      vertex 19.007 -2.37766 18
      vertex 19.7527 -0.914128 25
      vertex 19.7527 -0.914128 18
    endloop
  endfacet
  facet normal -0.891008 0.453987 0
    outer loop
      vertex 19.7527 -0.914128 25
      vertex 19.007 -2.37766 18
      vertex 19.007 -2.37766 25
    endloop
  endfacet
  facet normal 0 0 1
    outer loop
      vertex 0 20 25
      vertex -3 20 25
      vertex 0 3 25
    endloop
  endfacet
  facet normal 0 0 1
    outer loop
      vertex 35 3 25
      vertex 27.3332 0 25
      vertex 35 0 25
    endloop
  endfacet
  facet normal 0 0 1
    outer loop
      vertex 27.3332 0 25
      vertex 26.4099 -0.683031 25
      vertex 27.317 -1.59008 25
    endloop
  endfacet
  facet normal 0 0 1
    outer loop
      vertex 27.3332 0 25
      vertex 25.267 -0.100669 25
      vertex 26.4099 -0.683031 25
    endloop
  endfacet
  facet normal 0 0 1
    outer loop
      vertex 24.6314 0 25
      vertex 27.3332 0 25
      vertex 35 3 25
    endloop
  endfacet
  facet normal 0 0 1
    outer loop
      vertex 27.3332 0 25
      vertex 24.6314 0 25
      vertex 25.267 -0.100669 25
    endloop
  endfacet
  facet normal 0 0 1
    outer loop
      vertex 35 3 25
      vertex 23.3686 0 25
      vertex 24.6314 0 25
    endloop
  endfacet
  facet normal 0 0 1
    outer loop
      vertex 20.6668 0 25
      vertex 23.3686 0 25
      vertex 35 3 25
    endloop
  endfacet
  facet normal 0 0 1
    outer loop
      vertex 21.5901 -0.683031 25
      vertex 20.6668 0 25
      vertex 20.683 -1.59008 25
    endloop
  endfacet
  facet normal 0 0 1
    outer loop
      vertex 22.733 -0.100669 25
      vertex 20.6668 0 25
      vertex 21.5901 -0.683031 25
    endloop
  endfacet
  facet normal 0 0 1
    outer loop
      vertex 23.3686 0 25
      vertex 20.6668 0 25
      vertex 22.733 -0.100669 25
    endloop
  endfacet
  facet normal -0 0 1
    outer loop
      vertex 0 3 25
      vertex 20.6668 0 25
      vertex 35 3 25
    endloop
  endfacet
  facet normal 0 0 1
    outer loop
      vertex 0 3 25
      vertex -3 0 25
      vertex 20.6668 0 25
    endloop
  endfacet
  facet normal 0 0 1
    outer loop
      vertex -3 0 25
      vertex 0 3 25
      vertex -3 20 25
    endloop
  endfacet
  facet normal 0 0 1
    outer loop
      vertex 28.1 -4 25
      vertex 29.25 -4 25
      vertex 28.993 -2.37766 25
    endloop
  endfacet
  facet normal 0 0 1
    outer loop
      vertex 27.8993 -2.73303 25
      vertex 28.993 -2.37766 25
      vertex 28.2473 -0.914128 25
    endloop
  endfacet
  facet normal 0 0 1
    outer loop
      vertex 29.25 -4 25
      vertex 28.1 -4 25
      vertex 28.993 -5.62234 25
    endloop
  endfacet
  facet normal -0 0 1
    outer loop
      vertex 27.8993 -5.26697 25
      vertex 28.993 -5.62234 25
      vertex 28.1 -4 25
    endloop
  endfacet
  facet normal 0 0 1
    outer loop
      vertex 28.993 -2.37766 25
      vertex 27.8993 -2.73303 25
      vertex 28.1 -4 25
    endloop
  endfacet
  facet normal 0 0 1
    outer loop
      vertex 27.317 -1.59008 25
      vertex 28.2473 -0.914128 25
      vertex 27.3332 0 25
    endloop
  endfacet
  facet normal 0 0 1
    outer loop
      vertex 28.2473 -0.914128 25
      vertex 27.317 -1.59008 25
      vertex 27.8993 -2.73303 25
    endloop
  endfacet
  facet normal 0 0 1
    outer loop
      vertex 28.993 -5.62234 25
      vertex 27.8993 -5.26697 25
      vertex 28.2473 -7.08587 25
    endloop
  endfacet
  facet normal -0 0 1
    outer loop
      vertex 27.317 -6.40992 25
      vertex 28.2473 -7.08587 25
      vertex 27.8993 -5.26697 25
    endloop
  endfacet
  facet normal -0 0 1
    outer loop
      vertex 27 -6.72689 25
      vertex 28.2473 -7.08587 25
      vertex 27.317 -6.40992 25
    endloop
  endfacet
  facet normal 0 0 1
    outer loop
      vertex 28.2473 -7.08587 25
      vertex 27 -6.72689 25
      vertex 27.0859 -8.24734 25
    endloop
  endfacet
  facet normal 0 0 1
    outer loop
      vertex 27.0859 -8.24734 25
      vertex 27 -6.72689 25
      vertex 27 -8.29109 25
    endloop
  endfacet
  facet normal -0 0 1
    outer loop
      vertex 19.7527 -0.914128 25
      vertex 20.683 -1.59008 25
      vertex 20.6668 0 25
    endloop
  endfacet
  facet normal -0 0 1
    outer loop
      vertex 19.007 -2.37766 25
      vertex 20.1007 -2.73303 25
      vertex 19.7527 -0.914128 25
    endloop
  endfacet
  facet normal 0 0 1
    outer loop
      vertex 20.683 -1.59008 25
      vertex 19.7527 -0.914128 25
      vertex 20.1007 -2.73303 25
    endloop
  endfacet
  facet normal 0 0 1
    outer loop
      vertex 20.9141 -8.24734 25
      vertex 22 -7.52583 25
      vertex 21.5901 -7.31697 25
    endloop
  endfacet
  facet normal 0 0 1
    outer loop
      vertex 22 -7.52583 25
      vertex 20.9141 -8.24734 25
      vertex 22 -8.80062 25
    endloop
  endfacet
  facet normal 0 0 1
    outer loop
      vertex 20.683 -6.40992 25
      vertex 20.9141 -8.24734 25
      vertex 21.5901 -7.31697 25
    endloop
  endfacet
  facet normal 0 0 1
    outer loop
      vertex 19.7527 -7.08587 25
      vertex 20.683 -6.40992 25
      vertex 20.1007 -5.26697 25
    endloop
  endfacet
  facet normal 0 0 1
    outer loop
      vertex 20.683 -6.40992 25
      vertex 19.7527 -7.08587 25
      vertex 20.9141 -8.24734 25
    endloop
  endfacet
  facet normal 0 0 1
    outer loop
      vertex 19.007 -5.62234 25
      vertex 20.1007 -5.26697 25
      vertex 19.9 -4 25
    endloop
  endfacet
  facet normal 0 0 1
    outer loop
      vertex 20.1007 -2.73303 25
      vertex 19.007 -2.37766 25
      vertex 19.9 -4 25
    endloop
  endfacet
  facet normal 0 0 1
    outer loop
      vertex 18.75 -4 25
      vertex 19.9 -4 25
      vertex 19.007 -2.37766 25
    endloop
  endfacet
  facet normal 0 0 1
    outer loop
      vertex 20.1007 -5.26697 25
      vertex 19.007 -5.62234 25
      vertex 19.7527 -7.08587 25
    endloop
  endfacet
  facet normal 0 0 1
    outer loop
      vertex 19.9 -4 25
      vertex 18.75 -4 25
      vertex 19.007 -5.62234 25
    endloop
  endfacet
  facet normal 0.987684 -0.156462 0
    outer loop
      vertex 28.993 -5.62234 25
      vertex 29.25 -4 18
      vertex 29.25 -4 25
    endloop
  endfacet
  facet normal 0.987684 -0.156462 0
    outer loop
      vertex 29.25 -4 18
      vertex 28.993 -5.62234 25
      vertex 28.993 -5.62234 18
    endloop
  endfacet
  facet normal 0.707128 -0.707085 0
    outer loop
      vertex 27.0859 -8.24734 25
      vertex 28.2473 -7.08587 18
      vertex 28.2473 -7.08587 25
    endloop
  endfacet
  facet normal 0.707128 -0.707085 0
    outer loop
      vertex 28.2473 -7.08587 18
      vertex 27.0859 -8.24734 25
      vertex 27.0859 -8.24734 18
    endloop
  endfacet
  facet normal -0.453982 -0.891011 0
    outer loop
      vertex 20.9141 -8.24734 18
      vertex 22 -8.80062 25
      vertex 20.9141 -8.24734 25
    endloop
  endfacet
  facet normal -0.453982 -0.891011 -0
    outer loop
      vertex 22 -8.80062 25
      vertex 20.9141 -8.24734 18
      vertex 22 -8.80062 18
    endloop
  endfacet
  facet normal -0.891008 -0.453988 0
    outer loop
      vertex 19.7527 -7.08587 18
      vertex 19.007 -5.62234 25
      vertex 19.007 -5.62234 18
    endloop
  endfacet
  facet normal -0.891008 -0.453988 0
    outer loop
      vertex 19.007 -5.62234 25
      vertex 19.7527 -7.08587 18
      vertex 19.7527 -7.08587 25
    endloop
  endfacet
  facet normal 0.45384 -0.891083 0
    outer loop
      vertex 27 -8.29109 18
      vertex 27.0859 -8.24734 25
      vertex 27 -8.29109 25
    endloop
  endfacet
  facet normal 0.45384 -0.891083 0
    outer loop
      vertex 27.0859 -8.24734 25
      vertex 27 -8.29109 18
      vertex 27.0859 -8.24734 18
    endloop
  endfacet
  facet normal -0.987685 -0.156459 0
    outer loop
      vertex 28.1 -4 18
      vertex 27.8993 -2.73303 25
      vertex 27.8993 -2.73303 18
    endloop
  endfacet
  facet normal -0.987685 -0.156459 0
    outer loop
      vertex 27.8993 -2.73303 25
      vertex 28.1 -4 18
      vertex 28.1 -4 25
    endloop
  endfacet
  facet normal 0.987685 -0.156459 0
    outer loop
      vertex 19.9 -4 25
      vertex 20.1007 -2.73303 18
      vertex 20.1007 -2.73303 25
    endloop
  endfacet
  facet normal 0.987685 -0.156459 0
    outer loop
      vertex 20.1007 -2.73303 18
      vertex 19.9 -4 25
      vertex 19.9 -4 18
    endloop
  endfacet
  facet normal -0.156434 -0.987688 0
    outer loop
      vertex 24.6314 0 18
      vertex 25.267 -0.100669 25
      vertex 24.6314 0 25
    endloop
  endfacet
  facet normal -0.156434 -0.987688 -0
    outer loop
      vertex 25.267 -0.100669 25
      vertex 24.6314 0 18
      vertex 25.267 -0.100669 18
    endloop
  endfacet
  facet normal -0.707087 -0.707127 0
    outer loop
      vertex 27.317 -1.59008 18
      vertex 26.4099 -0.683031 25
      vertex 26.4099 -0.683031 18
    endloop
  endfacet
  facet normal -0.707087 -0.707127 0
    outer loop
      vertex 26.4099 -0.683031 25
      vertex 27.317 -1.59008 18
      vertex 27.317 -1.59008 25
    endloop
  endfacet
  facet normal -0.891026 -0.453952 0
    outer loop
      vertex 27.8993 -2.73303 18
      vertex 27.317 -1.59008 25
      vertex 27.317 -1.59008 18
    endloop
  endfacet
  facet normal -0.891026 -0.453952 0
    outer loop
      vertex 27.317 -1.59008 25
      vertex 27.8993 -2.73303 18
      vertex 27.8993 -2.73303 25
    endloop
  endfacet
  facet normal -0.454006 -0.890999 0
    outer loop
      vertex 25.267 -0.100669 18
      vertex 26.4099 -0.683031 25
      vertex 25.267 -0.100669 25
    endloop
  endfacet
  facet normal -0.454006 -0.890999 -0
    outer loop
      vertex 26.4099 -0.683031 25
      vertex 25.267 -0.100669 18
      vertex 26.4099 -0.683031 18
    endloop
  endfacet
  facet normal 0.454006 -0.890999 0
    outer loop
      vertex 21.5901 -0.683031 18
      vertex 22.733 -0.100669 25
      vertex 21.5901 -0.683031 25
    endloop
  endfacet
  facet normal 0.454006 -0.890999 0
    outer loop
      vertex 22.733 -0.100669 25
      vertex 21.5901 -0.683031 18
      vertex 22.733 -0.100669 18
    endloop
  endfacet
  facet normal 0.707087 -0.707127 0
    outer loop
      vertex 20.683 -1.59008 25
      vertex 21.5901 -0.683031 18
      vertex 21.5901 -0.683031 25
    endloop
  endfacet
  facet normal 0.707087 -0.707127 0
    outer loop
      vertex 21.5901 -0.683031 18
      vertex 20.683 -1.59008 25
      vertex 20.683 -1.59008 18
    endloop
  endfacet
  facet normal 0.156434 -0.987688 0
    outer loop
      vertex 22.733 -0.100669 18
      vertex 23.3686 0 25
      vertex 22.733 -0.100669 25
    endloop
  endfacet
  facet normal 0.156434 -0.987688 0
    outer loop
      vertex 23.3686 0 25
      vertex 22.733 -0.100669 18
      vertex 23.3686 0 18
    endloop
  endfacet
  facet normal -0.891026 0.453952 0
    outer loop
      vertex 27.317 -6.40992 18
      vertex 27.8993 -5.26697 25
      vertex 27.8993 -5.26697 18
    endloop
  endfacet
  facet normal -0.891026 0.453952 0
    outer loop
      vertex 27.8993 -5.26697 25
      vertex 27.317 -6.40992 18
      vertex 27.317 -6.40992 25
    endloop
  endfacet
  facet normal 0.707087 0.707126 0
    outer loop
      vertex 21.5901 -7.31697 25
      vertex 20.683 -6.40992 18
      vertex 20.683 -6.40992 25
    endloop
  endfacet
  facet normal 0.707087 0.707126 0
    outer loop
      vertex 20.683 -6.40992 18
      vertex 21.5901 -7.31697 25
      vertex 21.5901 -7.31697 18
    endloop
  endfacet
  facet normal 0.987685 0.156459 0
    outer loop
      vertex 20.1007 -5.26697 25
      vertex 19.9 -4 18
      vertex 19.9 -4 25
    endloop
  endfacet
  facet normal 0.987685 0.156459 0
    outer loop
      vertex 19.9 -4 18
      vertex 20.1007 -5.26697 25
      vertex 20.1007 -5.26697 18
    endloop
  endfacet
  facet normal 0.891026 -0.453952 0
    outer loop
      vertex 20.1007 -2.73303 25
      vertex 20.683 -1.59008 18
      vertex 20.683 -1.59008 25
    endloop
  endfacet
  facet normal 0.891026 -0.453952 0
    outer loop
      vertex 20.683 -1.59008 18
      vertex 20.1007 -2.73303 25
      vertex 20.1007 -2.73303 18
    endloop
  endfacet
  facet normal -0.987685 0.156459 0
    outer loop
      vertex 27.8993 -5.26697 18
      vertex 28.1 -4 25
      vertex 28.1 -4 18
    endloop
  endfacet
  facet normal -0.987685 0.156459 0
    outer loop
      vertex 28.1 -4 25
      vertex 27.8993 -5.26697 18
      vertex 27.8993 -5.26697 25
    endloop
  endfacet
  facet normal -0.707073 0.70714 0
    outer loop
      vertex 27 -6.72689 18
      vertex 27.317 -6.40992 25
      vertex 27.317 -6.40992 18
    endloop
  endfacet
  facet normal -0.707073 0.70714 0
    outer loop
      vertex 27.317 -6.40992 25
      vertex 27 -6.72689 18
      vertex 27 -6.72689 25
    endloop
  endfacet
  facet normal 0.454 0.891002 -0
    outer loop
      vertex 22 -7.52583 18
      vertex 21.5901 -7.31697 25
      vertex 22 -7.52583 25
    endloop
  endfacet
  facet normal 0.454 0.891002 0
    outer loop
      vertex 21.5901 -7.31697 25
      vertex 22 -7.52583 18
      vertex 21.5901 -7.31697 18
    endloop
  endfacet
  facet normal 0.891026 0.453952 0
    outer loop
      vertex 20.683 -6.40992 25
      vertex 20.1007 -5.26697 18
      vertex 20.1007 -5.26697 25
    endloop
  endfacet
  facet normal 0.891026 0.453952 0
    outer loop
      vertex 20.1007 -5.26697 18
      vertex 20.683 -6.40992 25
      vertex 20.683 -6.40992 18
    endloop
  endfacet
  facet normal 1 -0 0
    outer loop
      vertex 22 -8.80062 25
      vertex 22 -7.52583 18
      vertex 22 -7.52583 25
    endloop
  endfacet
  facet normal 1 0 0
    outer loop
      vertex 22 -7.52583 18
      vertex 22 -8.80062 25
      vertex 22 -8.80062 18
    endloop
  endfacet
  facet normal -1 0 0
    outer loop
      vertex 27 -8.29109 18
      vertex 27 -6.72689 25
      vertex 27 -6.72689 18
    endloop
  endfacet
  facet normal -1 -0 0
    outer loop
      vertex 27 -6.72689 25
      vertex 27 -8.29109 18
      vertex 27 -8.29109 25
    endloop
  endfacet
  facet normal 1 0 0
    outer loop
      vertex 0 10 7
      vertex 0 20 25
      vertex 0 10 23.5
    endloop
  endfacet
  facet normal 1 -0 0
    outer loop
      vertex 0 3 25
      vertex 0 10 23.5
      vertex 0 20 25
    endloop
  endfacet
  facet normal 1 0 0
    outer loop
      vertex 0 6 23.5
      vertex 0 3 25
      vertex 0 6 7
    endloop
  endfacet
  facet normal 1 0 0
    outer loop
      vertex 0 10 23.5
      vertex 0 3 25
      vertex 0 6 23.5
    endloop
  endfacet
  facet normal 1 0 0
    outer loop
      vertex 0 20 25
      vertex 0 10 7
      vertex 0 20 0
    endloop
  endfacet
  facet normal 1 0 0
    outer loop
      vertex 0 3 0
      vertex 0 10 7
      vertex 0 6 7
    endloop
  endfacet
  facet normal 1 0 0
    outer loop
      vertex 0 10 7
      vertex 0 3 0
      vertex 0 20 0
    endloop
  endfacet
  facet normal 1 0 0
    outer loop
      vertex 0 3 0
      vertex 0 6 7
      vertex 0 3 25
    endloop
  endfacet
  facet normal 1 -0 0
    outer loop
      vertex 35 0 25
      vertex 35 3 0
      vertex 35 3 25
    endloop
  endfacet
  facet normal 1 0 0
    outer loop
      vertex 35 3 0
      vertex 35 0 25
      vertex 35 0 0
    endloop
  endfacet
  facet normal 0 1 -0
    outer loop
      vertex 16.0008 3 21.3753
      vertex 0 3 25
      vertex 16.4747 3 21.6168
    endloop
  endfacet
  facet normal 0 1 0
    outer loop
      vertex 0 3 25
      vertex 2.52533 3 21.6168
      vertex 2 3 21.7
    endloop
  endfacet
  facet normal 0 1 -0
    outer loop
      vertex 2.99923 3 21.3753
      vertex 0 3 25
      vertex 16.0008 3 21.3753
    endloop
  endfacet
  facet normal 0 1 0
    outer loop
      vertex 0 3 25
      vertex 2.99923 3 21.3753
      vertex 2.52533 3 21.6168
    endloop
  endfacet
  facet normal 0 1 -0
    outer loop
      vertex 15.6247 3 20.9992
      vertex 2.99923 3 21.3753
      vertex 16.0008 3 21.3753
    endloop
  endfacet
  facet normal 0 1 0
    outer loop
      vertex 15.6247 3 20.9992
      vertex 3.37533 3 20.9992
      vertex 2.99923 3 21.3753
    endloop
  endfacet
  facet normal 0 1 -0
    outer loop
      vertex 15.3832 3 20.5253
      vertex 3.37533 3 20.9992
      vertex 15.6247 3 20.9992
    endloop
  endfacet
  facet normal 0 1 0
    outer loop
      vertex 15.3832 3 20.5253
      vertex 3.6168 3 20.5253
      vertex 3.37533 3 20.9992
    endloop
  endfacet
  facet normal 0 1 -0
    outer loop
      vertex 15.3 3 20
      vertex 3.6168 3 20.5253
      vertex 15.3832 3 20.5253
    endloop
  endfacet
  facet normal 0 1 0
    outer loop
      vertex 15.3 3 20
      vertex 3.7 3 20
      vertex 3.6168 3 20.5253
    endloop
  endfacet
  facet normal 0 1 0
    outer loop
      vertex 15.3832 3 19.4747
      vertex 3.7 3 20
      vertex 15.3 3 20
    endloop
  endfacet
  facet normal 0 1 0
    outer loop
      vertex 15.3832 3 19.4747
      vertex 3.6168 3 19.4747
      vertex 3.7 3 20
    endloop
  endfacet
  facet normal 0 1 0
    outer loop
      vertex 15.6247 3 19.0008
      vertex 3.6168 3 19.4747
      vertex 15.3832 3 19.4747
    endloop
  endfacet
  facet normal 0 1 0
    outer loop
      vertex 15.6247 3 19.0008
      vertex 3.37533 3 19.0008
      vertex 3.6168 3 19.4747
    endloop
  endfacet
  facet normal 0 1 0
    outer loop
      vertex 16.0008 3 18.6247
      vertex 3.37533 3 19.0008
      vertex 15.6247 3 19.0008
    endloop
  endfacet
  facet normal 0 1 0
    outer loop
      vertex 16.0008 3 18.6247
      vertex 2.99923 3 18.6247
      vertex 3.37533 3 19.0008
    endloop
  endfacet
  facet normal 0 1 0
    outer loop
      vertex 0 3 0
      vertex 16.0008 3 18.6247
      vertex 16.4747 3 18.3832
    endloop
  endfacet
  facet normal 0 1 0
    outer loop
      vertex 16.0008 3 18.6247
      vertex 0 3 0
      vertex 2.99923 3 18.6247
    endloop
  endfacet
  facet normal 0 1 0
    outer loop
      vertex 0 3 0
      vertex 16.4747 3 18.3832
      vertex 17 3 18.3
    endloop
  endfacet
  facet normal 0 1 0
    outer loop
      vertex 2.99923 3 18.6247
      vertex 0 3 0
      vertex 2.52533 3 18.3832
    endloop
  endfacet
  facet normal 0 1 0
    outer loop
      vertex 35 3 25
      vertex 17 3 21.7
      vertex 0 3 25
    endloop
  endfacet
  facet normal 0 1 0
    outer loop
      vertex 35 3 25
      vertex 17.5253 3 21.6168
      vertex 17 3 21.7
    endloop
  endfacet
  facet normal 0 1 0
    outer loop
      vertex 35 3 25
      vertex 17.9992 3 21.3753
      vertex 17.5253 3 21.6168
    endloop
  endfacet
  facet normal 0 1 0
    outer loop
      vertex 35 3 25
      vertex 18.3753 3 20.9992
      vertex 17.9992 3 21.3753
    endloop
  endfacet
  facet normal 0 1 0
    outer loop
      vertex 35 3 25
      vertex 18.6168 3 20.5253
      vertex 18.3753 3 20.9992
    endloop
  endfacet
  facet normal 0 1 0
    outer loop
      vertex 35 3 25
      vertex 18.7 3 20
      vertex 18.6168 3 20.5253
    endloop
  endfacet
  facet normal 0 1 0
    outer loop
      vertex 35 3 25
      vertex 18.6168 3 19.4747
      vertex 18.7 3 20
    endloop
  endfacet
  facet normal 0 1 0
    outer loop
      vertex 35 3 25
      vertex 18.3753 3 19.0008
      vertex 18.6168 3 19.4747
    endloop
  endfacet
  facet normal 0 1 -0
    outer loop
      vertex 35 3 0
      vertex 18.3753 3 19.0008
      vertex 35 3 25
    endloop
  endfacet
  facet normal 0 1 0
    outer loop
      vertex 18.3753 3 19.0008
      vertex 35 3 0
      vertex 17.9992 3 18.6247
    endloop
  endfacet
  facet normal 0 1 0
    outer loop
      vertex 0 3 0
      vertex 17 3 18.3
      vertex 35 3 0
    endloop
  endfacet
  facet normal 0 1 0
    outer loop
      vertex 17.5253 3 18.3832
      vertex 35 3 0
      vertex 17 3 18.3
    endloop
  endfacet
  facet normal 0 1 0
    outer loop
      vertex 17.9992 3 18.6247
      vertex 35 3 0
      vertex 17.5253 3 18.3832
    endloop
  endfacet
  facet normal 0 1 -0
    outer loop
      vertex 16.4747 3 21.6168
      vertex 0 3 25
      vertex 17 3 21.7
    endloop
  endfacet
  facet normal 0 1 -0
    outer loop
      vertex 1.47467 3 21.6168
      vertex 0 3 25
      vertex 2 3 21.7
    endloop
  endfacet
  facet normal 0 1 -0
    outer loop
      vertex 1.00076 3 21.3753
      vertex 0 3 25
      vertex 1.47467 3 21.6168
    endloop
  endfacet
  facet normal 0 1 -0
    outer loop
      vertex 0.624671 3 20.9992
      vertex 0 3 25
      vertex 1.00076 3 21.3753
    endloop
  endfacet
  facet normal 0 1 -0
    outer loop
      vertex 0.383204 3 20.5253
      vertex 0 3 25
      vertex 0.624671 3 20.9992
    endloop
  endfacet
  facet normal 0 1 -0
    outer loop
      vertex 0.299999 3 20
      vertex 0 3 25
      vertex 0.383204 3 20.5253
    endloop
  endfacet
  facet normal 0 1 0
    outer loop
      vertex 2.52533 3 18.3832
      vertex 0 3 0
      vertex 2 3 18.3
    endloop
  endfacet
  facet normal 0 1 0
    outer loop
      vertex 2 3 18.3
      vertex 0 3 0
      vertex 1.47467 3 18.3832
    endloop
  endfacet
  facet normal 0 1 0
    outer loop
      vertex 0.299999 3 20
      vertex 0 3 0
      vertex 0 3 25
    endloop
  endfacet
  facet normal 0 1 0
    outer loop
      vertex 0.383204 3 19.4747
      vertex 0 3 0
      vertex 0.299999 3 20
    endloop
  endfacet
  facet normal 0 1 0
    outer loop
      vertex 0.624671 3 19.0008
      vertex 0 3 0
      vertex 0.383204 3 19.4747
    endloop
  endfacet
  facet normal 0 1 0
    outer loop
      vertex 1.00076 3 18.6247
      vertex 0 3 0
      vertex 0.624671 3 19.0008
    endloop
  endfacet
  facet normal 0 1 0
    outer loop
      vertex 1.47467 3 18.3832
      vertex 0 3 0
      vertex 1.00076 3 18.6247
    endloop
  endfacet
  facet normal 0 0 -1
    outer loop
      vertex 35 0 0
      vertex 0 3 0
      vertex 35 3 0
    endloop
  endfacet
  facet normal 0 0 -1
    outer loop
      vertex -3 0 0
      vertex 0 3 0
      vertex 35 0 0
    endloop
  endfacet
  facet normal 0 0 -1
    outer loop
      vertex -3 20 0
      vertex 0 3 0
      vertex -3 0 0
    endloop
  endfacet
  facet normal 0 0 -1
    outer loop
      vertex 0 3 0
      vertex -3 20 0
      vertex 0 20 0
    endloop
  endfacet
  facet normal 0 -1 0
    outer loop
      vertex 16.4747 0 21.6168
      vertex 20.6668 0 25
      vertex 2.52533 0 21.6168
    endloop
  endfacet
  facet normal 0 -1 0
    outer loop
      vertex 20.6668 0 25
      vertex 16.4747 0 21.6168
      vertex 17 0 21.7
    endloop
  endfacet
  facet normal 0 -1 0
    outer loop
      vertex 2.99923 0 21.3753
      vertex 16.4747 0 21.6168
      vertex 2.52533 0 21.6168
    endloop
  endfacet
  facet normal 0 -1 0
    outer loop
      vertex 2.99923 0 21.3753
      vertex 16.0008 0 21.3753
      vertex 16.4747 0 21.6168
    endloop
  endfacet
  facet normal 0 -1 0
    outer loop
      vertex 3.37533 0 20.9992
      vertex 16.0008 0 21.3753
      vertex 2.99923 0 21.3753
    endloop
  endfacet
  facet normal 0 -1 0
    outer loop
      vertex 3.37533 0 20.9992
      vertex 15.6247 0 20.9992
      vertex 16.0008 0 21.3753
    endloop
  endfacet
  facet normal 0 -1 0
    outer loop
      vertex 3.6168 0 20.5253
      vertex 15.6247 0 20.9992
      vertex 3.37533 0 20.9992
    endloop
  endfacet
  facet normal 0 -1 0
    outer loop
      vertex 3.6168 0 20.5253
      vertex 15.3832 0 20.5253
      vertex 15.6247 0 20.9992
    endloop
  endfacet
  facet normal 0 -1 0
    outer loop
      vertex 3.7 0 20
      vertex 15.3832 0 20.5253
      vertex 3.6168 0 20.5253
    endloop
  endfacet
  facet normal 0 -1 0
    outer loop
      vertex 3.7 0 20
      vertex 15.3 0 20
      vertex 15.3832 0 20.5253
    endloop
  endfacet
  facet normal 0 -1 0
    outer loop
      vertex 3.6168 0 19.4747
      vertex 15.3 0 20
      vertex 3.7 0 20
    endloop
  endfacet
  facet normal 0 -1 0
    outer loop
      vertex 3.6168 0 19.4747
      vertex 15.3832 0 19.4747
      vertex 15.3 0 20
    endloop
  endfacet
  facet normal 0 -1 0
    outer loop
      vertex 3.37533 0 19.0008
      vertex 15.3832 0 19.4747
      vertex 3.6168 0 19.4747
    endloop
  endfacet
  facet normal 0 -1 0
    outer loop
      vertex 3.37533 0 19.0008
      vertex 15.6247 0 19.0008
      vertex 15.3832 0 19.4747
    endloop
  endfacet
  facet normal 0 -1 0
    outer loop
      vertex 2.99923 0 18.6247
      vertex 15.6247 0 19.0008
      vertex 3.37533 0 19.0008
    endloop
  endfacet
  facet normal 0 -1 0
    outer loop
      vertex 2.99923 0 18.6247
      vertex 16.0008 0 18.6247
      vertex 15.6247 0 19.0008
    endloop
  endfacet
  facet normal 0 -1 0
    outer loop
      vertex -3 0 0
      vertex 2.99923 0 18.6247
      vertex 2.52533 0 18.3832
    endloop
  endfacet
  facet normal 0 -1 -0
    outer loop
      vertex 2.99923 0 18.6247
      vertex -3 0 0
      vertex 16.0008 0 18.6247
    endloop
  endfacet
  facet normal 0 -1 0
    outer loop
      vertex -3 0 0
      vertex 2.52533 0 18.3832
      vertex 2 0 18.3
    endloop
  endfacet
  facet normal 0 -1 -0
    outer loop
      vertex 16.0008 0 18.6247
      vertex -3 0 0
      vertex 16.4747 0 18.3832
    endloop
  endfacet
  facet normal 0 -1 0
    outer loop
      vertex 2.52533 0 21.6168
      vertex -3 0 25
      vertex 2 0 21.7
    endloop
  endfacet
  facet normal 0 -1 0
    outer loop
      vertex -3 0 25
      vertex 1.47467 0 21.6168
      vertex 2 0 21.7
    endloop
  endfacet
  facet normal 0 -1 0
    outer loop
      vertex -3 0 25
      vertex 1.00076 0 21.3753
      vertex 1.47467 0 21.6168
    endloop
  endfacet
  facet normal 0 -1 0
    outer loop
      vertex -3 0 25
      vertex 0.624671 0 20.9992
      vertex 1.00076 0 21.3753
    endloop
  endfacet
  facet normal 0 -1 0
    outer loop
      vertex -3 0 25
      vertex 0.383204 0 20.5253
      vertex 0.624671 0 20.9992
    endloop
  endfacet
  facet normal 0 -1 0
    outer loop
      vertex -3 0 25
      vertex 0.299999 0 20
      vertex 0.383204 0 20.5253
    endloop
  endfacet
  facet normal 0 -1 0
    outer loop
      vertex -3 0 25
      vertex 0.383204 0 19.4747
      vertex 0.299999 0 20
    endloop
  endfacet
  facet normal 0 -1 0
    outer loop
      vertex -3 0 0
      vertex 0.383204 0 19.4747
      vertex -3 0 25
    endloop
  endfacet
  facet normal 0 -1 -0
    outer loop
      vertex 16.4747 0 18.3832
      vertex -3 0 0
      vertex 17 0 18.3
    endloop
  endfacet
  facet normal 0 -1 0
    outer loop
      vertex 35 0 0
      vertex 23.3686 0 18
      vertex 20.6668 0 18
    endloop
  endfacet
  facet normal 0 -1 0
    outer loop
      vertex 23.3686 0 18
      vertex 35 0 0
      vertex 24.6314 0 18
    endloop
  endfacet
  facet normal 0 -1 0
    outer loop
      vertex 17 0 18.3
      vertex 35 0 0
      vertex 20.6668 0 18
    endloop
  endfacet
  facet normal 0 -1 0
    outer loop
      vertex 35 0 0
      vertex 17 0 18.3
      vertex -3 0 0
    endloop
  endfacet
  facet normal 0 -1 -0
    outer loop
      vertex 1.47467 0 18.3832
      vertex -3 0 0
      vertex 2 0 18.3
    endloop
  endfacet
  facet normal 0 -1 -0
    outer loop
      vertex 1.00076 0 18.6247
      vertex -3 0 0
      vertex 1.47467 0 18.3832
    endloop
  endfacet
  facet normal 0 -1 -0
    outer loop
      vertex 0.624671 0 19.0008
      vertex -3 0 0
      vertex 1.00076 0 18.6247
    endloop
  endfacet
  facet normal 0 -1 -0
    outer loop
      vertex 0.383204 0 19.4747
      vertex -3 0 0
      vertex 0.624671 0 19.0008
    endloop
  endfacet
  facet normal 0 -1 0
    outer loop
      vertex -3 0 25
      vertex 2.52533 0 21.6168
      vertex 20.6668 0 25
    endloop
  endfacet
  facet normal 0 -1 0
    outer loop
      vertex 17.5253 0 21.6168
      vertex 20.6668 0 25
      vertex 17 0 21.7
    endloop
  endfacet
  facet normal 0 -1 0
    outer loop
      vertex 17.9992 0 21.3753
      vertex 20.6668 0 25
      vertex 17.5253 0 21.6168
    endloop
  endfacet
  facet normal 0 -1 0
    outer loop
      vertex 18.3753 0 20.9992
      vertex 20.6668 0 25
      vertex 17.9992 0 21.3753
    endloop
  endfacet
  facet normal 0 -1 0
    outer loop
      vertex 18.6168 0 20.5253
      vertex 20.6668 0 25
      vertex 18.3753 0 20.9992
    endloop
  endfacet
  facet normal 0 -1 0
    outer loop
      vertex 20.6668 0 18
      vertex 18.6168 0 20.5253
      vertex 18.7 0 20
    endloop
  endfacet
  facet normal 0 -1 0
    outer loop
      vertex 20.6668 0 18
      vertex 18.7 0 20
      vertex 18.6168 0 19.4747
    endloop
  endfacet
  facet normal 0 -1 0
    outer loop
      vertex 18.6168 0 20.5253
      vertex 20.6668 0 18
      vertex 20.6668 0 25
    endloop
  endfacet
  facet normal 0 -1 0
    outer loop
      vertex 18.3753 0 19.0008
      vertex 20.6668 0 18
      vertex 18.6168 0 19.4747
    endloop
  endfacet
  facet normal 0 -1 0
    outer loop
      vertex 17.9992 0 18.6247
      vertex 20.6668 0 18
      vertex 18.3753 0 19.0008
    endloop
  endfacet
  facet normal 0 -1 0
    outer loop
      vertex 17.5253 0 18.3832
      vertex 20.6668 0 18
      vertex 17.9992 0 18.6247
    endloop
  endfacet
  facet normal 0 -1 0
    outer loop
      vertex 20.6668 0 18
      vertex 17.5253 0 18.3832
      vertex 17 0 18.3
    endloop
  endfacet
  facet normal 0 -1 0
    outer loop
      vertex 23.3686 0 18
      vertex 24.6314 0 25
      vertex 23.3686 0 25
    endloop
  endfacet
  facet normal 0 -1 -0
    outer loop
      vertex 24.6314 0 25
      vertex 23.3686 0 18
      vertex 24.6314 0 18
    endloop
  endfacet
  facet normal 0 -1 0
    outer loop
      vertex 27.3332 0 18
      vertex 35 0 25
      vertex 27.3332 0 25
    endloop
  endfacet
  facet normal 0 -1 0
    outer loop
      vertex 27.3332 0 18
      vertex 35 0 0
      vertex 35 0 25
    endloop
  endfacet
  facet normal 0 -1 0
    outer loop
      vertex 24.6314 0 18
      vertex 35 0 0
      vertex 27.3332 0 18
    endloop
  endfacet
  facet normal 0 1 -0
    outer loop
      vertex 0 20 0
      vertex -3 20 25
      vertex 0 20 25
    endloop
  endfacet
  facet normal 0 1 0
    outer loop
      vertex -3 20 25
      vertex 0 20 0
      vertex -3 20 0
    endloop
  endfacet
  facet normal -1 0 0
    outer loop
      vertex -3 20 0
      vertex -3 10 7
      vertex -3 20 25
    endloop
  endfacet
  facet normal -1 0 0
    outer loop
      vertex -3 0 0
      vertex -3 10 7
      vertex -3 20 0
    endloop
  endfacet
  facet normal -1 0 0
    outer loop
      vertex -3 0 25
      vertex -3 6 7
      vertex -3 0 0
    endloop
  endfacet
  facet normal -1 -0 0
    outer loop
      vertex -3 10 7
      vertex -3 0 0
      vertex -3 6 7
    endloop
  endfacet
  facet normal -1 0 0
    outer loop
      vertex -3 10 23.5
      vertex -3 20 25
      vertex -3 10 7
    endloop
  endfacet
  facet normal -1 0 0
    outer loop
      vertex -3 0 25
      vertex -3 10 23.5
      vertex -3 6 23.5
    endloop
  endfacet
  facet normal -1 0 0
    outer loop
      vertex -3 10 23.5
      vertex -3 0 25
      vertex -3 20 25
    endloop
  endfacet
  facet normal -1 0 0
    outer loop
      vertex -3 6 7
      vertex -3 0 25
      vertex -3 6 23.5
    endloop
  endfacet
  facet normal -0.987688 0 0.156436
    outer loop
      vertex 3.6168 0 19.4747
      vertex 3.7 3 20
      vertex 3.6168 3 19.4747
    endloop
  endfacet
  facet normal -0.987688 0 0.156436
    outer loop
      vertex 3.7 3 20
      vertex 3.6168 0 19.4747
      vertex 3.7 0 20
    endloop
  endfacet
  facet normal 0.987687 -0 0.156445
    outer loop
      vertex 0.299999 0 20
      vertex 0.383204 3 19.4747
      vertex 0.299999 3 20
    endloop
  endfacet
  facet normal 0.987687 0 0.156445
    outer loop
      vertex 0.383204 3 19.4747
      vertex 0.299999 0 20
      vertex 0.383204 0 19.4747
    endloop
  endfacet
  facet normal -0.156427 0 0.98769
    outer loop
      vertex 2 3 18.3
      vertex 2.52533 0 18.3832
      vertex 2.52533 3 18.3832
    endloop
  endfacet
  facet normal -0.156427 0 0.98769
    outer loop
      vertex 2.52533 0 18.3832
      vertex 2 3 18.3
      vertex 2 0 18.3
    endloop
  endfacet
  facet normal -0.707107 0 0.707107
    outer loop
      vertex 2.99923 3 18.6247
      vertex 3.37533 0 19.0008
      vertex 3.37533 3 19.0008
    endloop
  endfacet
  facet normal -0.707107 0 0.707107
    outer loop
      vertex 3.37533 0 19.0008
      vertex 2.99923 3 18.6247
      vertex 2.99923 0 18.6247
    endloop
  endfacet
  facet normal -0.891002 0 0.453999
    outer loop
      vertex 3.37533 0 19.0008
      vertex 3.6168 3 19.4747
      vertex 3.37533 3 19.0008
    endloop
  endfacet
  facet normal -0.891002 0 0.453999
    outer loop
      vertex 3.6168 3 19.4747
      vertex 3.37533 0 19.0008
      vertex 3.6168 0 19.4747
    endloop
  endfacet
  facet normal -0.454044 0 0.890979
    outer loop
      vertex 2.52533 3 18.3832
      vertex 2.99923 0 18.6247
      vertex 2.99923 3 18.6247
    endloop
  endfacet
  facet normal -0.454044 0 0.890979
    outer loop
      vertex 2.99923 0 18.6247
      vertex 2.52533 3 18.3832
      vertex 2.52533 0 18.3832
    endloop
  endfacet
  facet normal 0.454036 0 0.890983
    outer loop
      vertex 1.00076 3 18.6247
      vertex 1.47467 0 18.3832
      vertex 1.47467 3 18.3832
    endloop
  endfacet
  facet normal 0.454036 0 0.890983
    outer loop
      vertex 1.47467 0 18.3832
      vertex 1.00076 3 18.6247
      vertex 1.00076 0 18.6247
    endloop
  endfacet
  facet normal 0.156427 0 0.98769
    outer loop
      vertex 1.47467 3 18.3832
      vertex 2 0 18.3
      vertex 2 3 18.3
    endloop
  endfacet
  facet normal 0.156427 0 0.98769
    outer loop
      vertex 2 0 18.3
      vertex 1.47467 3 18.3832
      vertex 1.47467 0 18.3832
    endloop
  endfacet
  facet normal 0.454036 0 -0.890983
    outer loop
      vertex 1.00076 0 21.3753
      vertex 1.47467 3 21.6168
      vertex 1.47467 0 21.6168
    endloop
  endfacet
  facet normal 0.454036 0 -0.890983
    outer loop
      vertex 1.47467 3 21.6168
      vertex 1.00076 0 21.3753
      vertex 1.00076 3 21.3753
    endloop
  endfacet
  facet normal 0.987687 0 -0.156445
    outer loop
      vertex 0.383204 0 20.5253
      vertex 0.299999 3 20
      vertex 0.383204 3 20.5253
    endloop
  endfacet
  facet normal 0.987687 0 -0.156445
    outer loop
      vertex 0.299999 3 20
      vertex 0.383204 0 20.5253
      vertex 0.299999 0 20
    endloop
  endfacet
  facet normal 0.707117 0 0.707096
    outer loop
      vertex 0.624671 3 19.0008
      vertex 1.00076 0 18.6247
      vertex 1.00076 3 18.6247
    endloop
  endfacet
  facet normal 0.707117 0 0.707096
    outer loop
      vertex 1.00076 0 18.6247
      vertex 0.624671 3 19.0008
      vertex 0.624671 0 19.0008
    endloop
  endfacet
  facet normal 0.891004 -0 0.453995
    outer loop
      vertex 0.383204 0 19.4747
      vertex 0.624671 3 19.0008
      vertex 0.383204 3 19.4747
    endloop
  endfacet
  facet normal 0.891004 0 0.453995
    outer loop
      vertex 0.624671 3 19.0008
      vertex 0.383204 0 19.4747
      vertex 0.624671 0 19.0008
    endloop
  endfacet
  facet normal -0.987688 0 -0.156436
    outer loop
      vertex 3.7 0 20
      vertex 3.6168 3 20.5253
      vertex 3.7 3 20
    endloop
  endfacet
  facet normal -0.987688 -0 -0.156436
    outer loop
      vertex 3.6168 3 20.5253
      vertex 3.7 0 20
      vertex 3.6168 0 20.5253
    endloop
  endfacet
  facet normal -0.156427 0 -0.98769
    outer loop
      vertex 2 0 21.7
      vertex 2.52533 3 21.6168
      vertex 2.52533 0 21.6168
    endloop
  endfacet
  facet normal -0.156427 0 -0.98769
    outer loop
      vertex 2.52533 3 21.6168
      vertex 2 0 21.7
      vertex 2 3 21.7
    endloop
  endfacet
  facet normal -0.891002 0 -0.453999
    outer loop
      vertex 3.6168 0 20.5253
      vertex 3.37533 3 20.9992
      vertex 3.6168 3 20.5253
    endloop
  endfacet
  facet normal -0.891002 -0 -0.453999
    outer loop
      vertex 3.37533 3 20.9992
      vertex 3.6168 0 20.5253
      vertex 3.37533 0 20.9992
    endloop
  endfacet
  facet normal 0.156427 0 -0.98769
    outer loop
      vertex 1.47467 0 21.6168
      vertex 2 3 21.7
      vertex 2 0 21.7
    endloop
  endfacet
  facet normal 0.156427 0 -0.98769
    outer loop
      vertex 2 3 21.7
      vertex 1.47467 0 21.6168
      vertex 1.47467 3 21.6168
    endloop
  endfacet
  facet normal 0.891004 0 -0.453995
    outer loop
      vertex 0.624671 0 20.9992
      vertex 0.383204 3 20.5253
      vertex 0.624671 3 20.9992
    endloop
  endfacet
  facet normal 0.891004 0 -0.453995
    outer loop
      vertex 0.383204 3 20.5253
      vertex 0.624671 0 20.9992
      vertex 0.383204 0 20.5253
    endloop
  endfacet
  facet normal -0.454044 0 -0.890979
    outer loop
      vertex 2.52533 0 21.6168
      vertex 2.99923 3 21.3753
      vertex 2.99923 0 21.3753
    endloop
  endfacet
  facet normal -0.454044 0 -0.890979
    outer loop
      vertex 2.99923 3 21.3753
      vertex 2.52533 0 21.6168
      vertex 2.52533 3 21.6168
    endloop
  endfacet
  facet normal 0.707117 0 -0.707096
    outer loop
      vertex 1.00076 0 21.3753
      vertex 0.624671 3 20.9992
      vertex 1.00076 3 21.3753
    endloop
  endfacet
  facet normal 0.707117 0 -0.707096
    outer loop
      vertex 0.624671 3 20.9992
      vertex 1.00076 0 21.3753
      vertex 0.624671 0 20.9992
    endloop
  endfacet
  facet normal -0.707107 0 -0.707107
    outer loop
      vertex 3.37533 0 20.9992
      vertex 2.99923 3 21.3753
      vertex 3.37533 3 20.9992
    endloop
  endfacet
  facet normal -0.707107 -0 -0.707107
    outer loop
      vertex 2.99923 3 21.3753
      vertex 3.37533 0 20.9992
      vertex 2.99923 0 21.3753
    endloop
  endfacet
  facet normal -0.987688 0 0.156436
    outer loop
      vertex 18.6168 0 19.4747
      vertex 18.7 3 20
      vertex 18.6168 3 19.4747
    endloop
  endfacet
  facet normal -0.987688 0 0.156436
    outer loop
      vertex 18.7 3 20
      vertex 18.6168 0 19.4747
      vertex 18.7 0 20
    endloop
  endfacet
  facet normal 0.987688 -0 0.156436
    outer loop
      vertex 15.3 0 20
      vertex 15.3832 3 19.4747
      vertex 15.3 3 20
    endloop
  endfacet
  facet normal 0.987688 0 0.156436
    outer loop
      vertex 15.3832 3 19.4747
      vertex 15.3 0 20
      vertex 15.3832 0 19.4747
    endloop
  endfacet
  facet normal -0.156436 0 0.987688
    outer loop
      vertex 17 3 18.3
      vertex 17.5253 0 18.3832
      vertex 17.5253 3 18.3832
    endloop
  endfacet
  facet normal -0.156436 0 0.987688
    outer loop
      vertex 17.5253 0 18.3832
      vertex 17 3 18.3
      vertex 17 0 18.3
    endloop
  endfacet
  facet normal -0.707107 0 0.707107
    outer loop
      vertex 17.9992 3 18.6247
      vertex 18.3753 0 19.0008
      vertex 18.3753 3 19.0008
    endloop
  endfacet
  facet normal -0.707107 0 0.707107
    outer loop
      vertex 18.3753 0 19.0008
      vertex 17.9992 3 18.6247
      vertex 17.9992 0 18.6247
    endloop
  endfacet
  facet normal -0.890979 0 0.454044
    outer loop
      vertex 18.3753 0 19.0008
      vertex 18.6168 3 19.4747
      vertex 18.3753 3 19.0008
    endloop
  endfacet
  facet normal -0.890979 0 0.454044
    outer loop
      vertex 18.6168 3 19.4747
      vertex 18.3753 0 19.0008
      vertex 18.6168 0 19.4747
    endloop
  endfacet
  facet normal -0.454044 0 0.890979
    outer loop
      vertex 17.5253 3 18.3832
      vertex 17.9992 0 18.6247
      vertex 17.9992 3 18.6247
    endloop
  endfacet
  facet normal -0.454044 0 0.890979
    outer loop
      vertex 17.9992 0 18.6247
      vertex 17.5253 3 18.3832
      vertex 17.5253 0 18.3832
    endloop
  endfacet
  facet normal 0.454044 0 0.890979
    outer loop
      vertex 16.0008 3 18.6247
      vertex 16.4747 0 18.3832
      vertex 16.4747 3 18.3832
    endloop
  endfacet
  facet normal 0.454044 0 0.890979
    outer loop
      vertex 16.4747 0 18.3832
      vertex 16.0008 3 18.6247
      vertex 16.0008 0 18.6247
    endloop
  endfacet
  facet normal 0.156436 0 0.987688
    outer loop
      vertex 16.4747 3 18.3832
      vertex 17 0 18.3
      vertex 17 3 18.3
    endloop
  endfacet
  facet normal 0.156436 0 0.987688
    outer loop
      vertex 17 0 18.3
      vertex 16.4747 3 18.3832
      vertex 16.4747 0 18.3832
    endloop
  endfacet
  facet normal 0.454044 0 -0.890979
    outer loop
      vertex 16.0008 0 21.3753
      vertex 16.4747 3 21.6168
      vertex 16.4747 0 21.6168
    endloop
  endfacet
  facet normal 0.454044 0 -0.890979
    outer loop
      vertex 16.4747 3 21.6168
      vertex 16.0008 0 21.3753
      vertex 16.0008 3 21.3753
    endloop
  endfacet
  facet normal 0.987688 0 -0.156436
    outer loop
      vertex 15.3832 0 20.5253
      vertex 15.3 3 20
      vertex 15.3832 3 20.5253
    endloop
  endfacet
  facet normal 0.987688 0 -0.156436
    outer loop
      vertex 15.3 3 20
      vertex 15.3832 0 20.5253
      vertex 15.3 0 20
    endloop
  endfacet
  facet normal 0.707107 0 0.707107
    outer loop
      vertex 15.6247 3 19.0008
      vertex 16.0008 0 18.6247
      vertex 16.0008 3 18.6247
    endloop
  endfacet
  facet normal 0.707107 0 0.707107
    outer loop
      vertex 16.0008 0 18.6247
      vertex 15.6247 3 19.0008
      vertex 15.6247 0 19.0008
    endloop
  endfacet
  facet normal 0.890979 -0 0.454044
    outer loop
      vertex 15.3832 0 19.4747
      vertex 15.6247 3 19.0008
      vertex 15.3832 3 19.4747
    endloop
  endfacet
  facet normal 0.890979 0 0.454044
    outer loop
      vertex 15.6247 3 19.0008
      vertex 15.3832 0 19.4747
      vertex 15.6247 0 19.0008
    endloop
  endfacet
  facet normal -0.987688 0 -0.156436
    outer loop
      vertex 18.7 0 20
      vertex 18.6168 3 20.5253
      vertex 18.7 3 20
    endloop
  endfacet
  facet normal -0.987688 -0 -0.156436
    outer loop
      vertex 18.6168 3 20.5253
      vertex 18.7 0 20
      vertex 18.6168 0 20.5253
    endloop
  endfacet
  facet normal -0.156436 0 -0.987688
    outer loop
      vertex 17 0 21.7
      vertex 17.5253 3 21.6168
      vertex 17.5253 0 21.6168
    endloop
  endfacet
  facet normal -0.156436 0 -0.987688
    outer loop
      vertex 17.5253 3 21.6168
      vertex 17 0 21.7
      vertex 17 3 21.7
    endloop
  endfacet
  facet normal -0.890979 0 -0.454044
    outer loop
      vertex 18.6168 0 20.5253
      vertex 18.3753 3 20.9992
      vertex 18.6168 3 20.5253
    endloop
  endfacet
  facet normal -0.890979 -0 -0.454044
    outer loop
      vertex 18.3753 3 20.9992
      vertex 18.6168 0 20.5253
      vertex 18.3753 0 20.9992
    endloop
  endfacet
  facet normal 0.156436 0 -0.987688
    outer loop
      vertex 16.4747 0 21.6168
      vertex 17 3 21.7
      vertex 17 0 21.7
    endloop
  endfacet
  facet normal 0.156436 0 -0.987688
    outer loop
      vertex 17 3 21.7
      vertex 16.4747 0 21.6168
      vertex 16.4747 3 21.6168
    endloop
  endfacet
  facet normal 0.890979 0 -0.454044
    outer loop
      vertex 15.6247 0 20.9992
      vertex 15.3832 3 20.5253
      vertex 15.6247 3 20.9992
    endloop
  endfacet
  facet normal 0.890979 0 -0.454044
    outer loop
      vertex 15.3832 3 20.5253
      vertex 15.6247 0 20.9992
      vertex 15.3832 0 20.5253
    endloop
  endfacet
  facet normal -0.454044 0 -0.890979
    outer loop
      vertex 17.5253 0 21.6168
      vertex 17.9992 3 21.3753
      vertex 17.9992 0 21.3753
    endloop
  endfacet
  facet normal -0.454044 0 -0.890979
    outer loop
      vertex 17.9992 3 21.3753
      vertex 17.5253 0 21.6168
      vertex 17.5253 3 21.6168
    endloop
  endfacet
  facet normal 0.707107 0 -0.707107
    outer loop
      vertex 16.0008 0 21.3753
      vertex 15.6247 3 20.9992
      vertex 16.0008 3 21.3753
    endloop
  endfacet
  facet normal 0.707107 0 -0.707107
    outer loop
      vertex 15.6247 3 20.9992
      vertex 16.0008 0 21.3753
      vertex 15.6247 0 20.9992
    endloop
  endfacet
  facet normal -0.707107 0 -0.707107
    outer loop
      vertex 18.3753 0 20.9992
      vertex 17.9992 3 21.3753
      vertex 18.3753 3 20.9992
    endloop
  endfacet
  facet normal -0.707107 -0 -0.707107
    outer loop
      vertex 17.9992 3 21.3753
      vertex 18.3753 0 20.9992
      vertex 17.9992 0 21.3753
    endloop
  endfacet
  facet normal 0 0 -1
    outer loop
      vertex -3 6 23.5
      vertex 0 10 23.5
      vertex 0 6 23.5
    endloop
  endfacet
  facet normal -0 0 -1
    outer loop
      vertex 0 10 23.5
      vertex -3 6 23.5
      vertex -3 10 23.5
    endloop
  endfacet
  facet normal 0 -1 0
    outer loop
      vertex -3 10 7
      vertex 0 10 23.5
      vertex -3 10 23.5
    endloop
  endfacet
  facet normal 0 -1 -0
    outer loop
      vertex 0 10 23.5
      vertex -3 10 7
      vertex 0 10 7
    endloop
  endfacet
  facet normal -0 0 1
    outer loop
      vertex -3 10 7
      vertex 0 6 7
      vertex 0 10 7
    endloop
  endfacet
  facet normal 0 0 1
    outer loop
      vertex 0 6 7
      vertex -3 10 7
      vertex -3 6 7
    endloop
  endfacet
  facet normal 0 1 -0
    outer loop
      vertex 0 6 7
      vertex -3 6 23.5
      vertex 0 6 23.5
    endloop
  endfacet
  facet normal 0 1 0
    outer loop
      vertex -3 6 23.5
      vertex 0 6 7
      vertex -3 6 7
    endloop
  endfacet
endsolid OpenSCAD_Model
